<svg width="16" height="33" viewBox="0 0 16 33" fill="none" xmlns="http://www.w3.org/2000/svg">
<g clip-path="url(#clip0_2_10)">
<path d="M5.81818 26.9091H9.94546V32.7273H5.81818V26.9091Z" fill="#EDE0D4"/>
<path d="M1.45455 32.7273C0.651222 32.7273 0 32.076 0 31.2727V1.45455C0 0.651222 0.651222 0 1.45455 0H4.36364C5.16695 0 5.81818 0.651222 5.81818 1.45455V32.7273H1.45455Z" fill="#EDE0D4"/>
<path d="M9.94327 32.7273V11.8182C9.94327 11.0149 10.5945 10.3636 11.3978 10.3636H14.3535C15.1568 10.3636 15.808 11.0149 15.808 11.8182V31.2727C15.808 32.076 15.1568 32.7273 14.3535 32.7273H9.94327Z" fill="#EDE0D4"/>
<path d="M11.2727 9.09091C10.4694 9.09091 9.81818 8.43967 9.81818 7.63636V1.45455C9.81818 0.651222 10.4694 0 11.2727 0H14.1818C14.9851 0 15.6364 0.651222 15.6364 1.45455V7.63636C15.6364 8.43967 14.9851 9.09091 14.1818 9.09091H11.2727Z" fill="#EDE0D4"/>
</g>
<defs>
<clipPath id="clip0_2_10">
<rect width="16" height="32.7273" fill="white"/>
</clipPath>
</defs>
</svg>
