<svg width="64" height="63" viewBox="0 0 64 63" fill="none" xmlns="http://www.w3.org/2000/svg">
<path fill-rule="evenodd" clip-rule="evenodd" d="M32.0265 0C14.3167 0 0 14.4374 0 32.2985C0 46.5758 9.17318 58.6613 21.8988 62.9387C23.4898 63.2603 24.0726 62.2437 24.0726 61.3887C24.0726 60.6399 24.0202 58.0733 24.0202 55.3991C15.1112 57.3245 13.256 51.5489 13.256 51.5489C11.8242 47.8057 9.70287 46.8436 9.70287 46.8436C6.78696 44.865 9.91527 44.865 9.91527 44.865C13.1498 45.0789 14.847 48.1804 14.847 48.1804C17.7098 53.0996 22.323 51.7097 24.1788 50.8539C24.4437 48.7684 25.2926 47.3246 26.194 46.5227C19.0884 45.7739 11.6125 42.9934 11.6125 30.587C11.6125 27.0577 12.8843 24.1702 14.8995 21.9246C14.5815 21.1226 13.4677 17.8066 15.2181 13.3684C15.2181 13.3684 17.9222 12.5127 24.0195 16.6838C26.63 15.9768 29.3222 15.6171 32.0265 15.6141C34.7306 15.6141 37.4873 15.9888 40.0328 16.6838C46.1307 12.5127 48.8349 13.3684 48.8349 13.3684C50.5852 17.8066 49.4708 21.1226 49.1528 21.9246C51.2211 24.1702 52.4405 27.0577 52.4405 30.587C52.4405 42.9934 44.9645 45.7201 37.8058 46.5227C38.9727 47.5386 39.9797 49.4633 39.9797 52.5116C39.9797 56.8428 39.9272 60.319 39.9272 61.388C39.9272 62.2437 40.5107 63.2603 42.101 62.9394C54.8267 58.6606 63.9999 46.5758 63.9999 32.2985C64.0523 14.4374 49.6832 0 32.0265 0Z" fill="#EDE0D4"/>
</svg>
