<svg width="64" height="64" viewBox="0 0 64 64" fill="none" xmlns="http://www.w3.org/2000/svg">
<path d="M7.2125 24.125L8.3875 26.175C9.425 27.9875 11.125 29.325 13.1375 29.9L20.375 31.9625C22.525 32.575 24 34.5375 24 36.775V41.7625C24 43.1375 24.775 44.3875 26 45C27.225 45.6125 28 46.8625 28 48.2375V53.1125C28 55.0625 29.8625 56.475 31.7375 55.9375C33.75 55.3625 35.3125 53.75 35.825 51.7125L36.175 50.3125C36.7 48.2 38.075 46.3875 39.9625 45.3125L40.975 44.7375C42.85 43.675 44 41.675 44 39.525V38.4875C44 36.9 43.3625 35.375 42.2375 34.25L41.75 33.7625C40.625 32.6375 39.1 32 37.5125 32H32.125C30.7375 32 29.3625 31.6375 28.15 30.95L23.8375 28.4875C23.3 28.175 22.8875 27.675 22.6875 27.0875C22.2875 25.8875 22.825 24.5875 23.9625 24.025L24.7 23.65C25.525 23.2375 26.4875 23.1625 27.3625 23.4625L30.2625 24.425C31.2875 24.7625 32.4125 24.375 33 23.4875C33.5875 22.6125 33.525 21.45 32.85 20.6375L31.15 18.6C29.9 17.1 29.9125 14.9125 31.1875 13.4375L33.15 11.15C34.25 9.8625 34.425 8.025 33.5875 6.5625L33.2875 6.0375C32.85 6.0125 32.425 6 31.9875 6C20.3875 6 10.55 13.6125 7.2125 24.125ZM58 32C58 27.4 56.8 23.075 54.7 19.3125L51.5 20.6C49.5375 21.3875 48.525 23.575 49.1875 25.575L51.3 31.9125C51.7375 33.2125 52.8 34.2 54.125 34.525L57.7625 35.4375C57.9125 34.3125 57.9875 33.1625 57.9875 32H58ZM0 32C0 23.5131 3.37142 15.3737 9.37258 9.37258C15.3737 3.37142 23.5131 0 32 0C40.4869 0 48.6263 3.37142 54.6274 9.37258C60.6286 15.3737 64 23.5131 64 32C64 40.4869 60.6286 48.6263 54.6274 54.6274C48.6263 60.6286 40.4869 64 32 64C23.5131 64 15.3737 60.6286 9.37258 54.6274C3.37142 48.6263 0 40.4869 0 32Z" fill="#EDE0D4"/>
</svg>
