<svg width="64" height="64" viewBox="0 0 64 64" fill="none" xmlns="http://www.w3.org/2000/svg">
<path d="M14.3286 63.875H1.05714V21.2299H14.3286V63.875ZM7.68571 15.4127C3.44286 15.4127 0 11.9053 0 7.6707C0 5.63631 0.809743 3.68523 2.25109 2.2467C3.69244 0.808161 5.64734 0 7.68571 0C9.72409 0 11.679 0.808161 13.1203 2.2467C14.5617 3.68523 15.3714 5.63631 15.3714 7.6707C15.3714 11.9053 11.9286 15.4127 7.68571 15.4127ZM63.9857 63.875H50.7429V43.1156C50.7429 38.1682 50.6429 31.8234 43.8429 31.8234C36.9429 31.8234 35.8857 37.1986 35.8857 42.7592V63.875H22.6286V21.2299H35.3571V27.0471H35.5429C37.3143 23.6965 41.6429 20.1605 48.1 20.1605C61.5286 20.1605 64 28.9861 64 40.4494V63.875H63.9857Z" fill="#EDE0D4"/>
</svg>
