<svg width="36" height="36" viewBox="0 0 36 36" fill="none" xmlns="http://www.w3.org/2000/svg">
<path d="M25.1138 3.77881V10.5395C27.3139 11.8125 28.989 13.8273 29.839 16.2228H32.2229C32.6944 16.2228 33.1466 16.4101 33.48 16.7435C33.8133 17.0769 34.0006 17.5291 34.0006 18.0005V21.556C34.0006 22.0275 33.8133 22.4796 33.48 22.813C33.1466 23.1464 32.6944 23.3337 32.2229 23.3337H29.8372C29.2399 25.0225 28.2248 26.5336 26.8898 27.73V31.3334C26.8898 32.0406 26.6088 32.7189 26.1087 33.219C25.6087 33.7191 24.9304 34 24.2232 34C23.516 34 22.8377 33.7191 22.3376 33.219C21.8376 32.7189 21.5566 32.0406 21.5566 31.3334V30.297C20.9692 30.3954 20.3745 30.4448 19.7789 30.4446H12.668C12.0724 30.4448 11.4778 30.3954 10.8903 30.297V31.3334C10.8903 32.0406 10.6094 32.7189 10.1093 33.219C9.60921 33.7191 8.93095 34 8.22373 34C7.51651 34 6.83826 33.7191 6.33818 33.219C5.8381 32.7189 5.55716 32.0406 5.55716 31.3334V27.778V27.73C3.94647 26.29 2.81107 24.3948 2.30123 22.2953C1.7914 20.1958 1.93116 17.9909 2.70204 15.9726C3.47291 13.9542 4.83854 12.2176 6.61816 10.9925C8.39778 9.76739 10.5075 9.11161 12.668 9.11196H17.1123L25.112 3.77881H25.1138Z" stroke="#7F5539" stroke-width="3.6" stroke-linecap="round" stroke-linejoin="round"/>
<path d="M23.3361 16.2228V16.2406" stroke="#7F5539" stroke-width="3.6" stroke-linecap="round" stroke-linejoin="round"/>
<path d="M5.86649 11.5617C5.08678 10.9624 4.48794 10.1592 4.13616 9.24092C3.78439 8.3226 3.69337 7.3249 3.87316 6.35808C4.05295 5.39127 4.49656 4.49299 5.15496 3.76253C5.81336 3.03207 6.6609 2.49787 7.60391 2.21897C8.54693 1.94008 9.54869 1.92735 10.4985 2.18219C11.4483 2.43704 12.3091 2.94953 12.9859 3.66302C13.6626 4.37652 14.1289 5.26324 14.3332 6.22517C14.5375 7.18711 14.4719 8.1868 14.1435 9.11376" stroke="#7F5539" stroke-width="3.6" stroke-linecap="round" stroke-linejoin="round"/>
</svg>
